<svg xmlns="http://www.w3.org/2000/svg" viewBox="0 0 64 64">
  <defs>
    <linearGradient id="bg" x1="0" y1="0" x2="1" y2="1">
      <stop offset="0%" stop-color="#f59e0b" />
      <stop offset="100%" stop-color="#ea580c" />
    </linearGradient>
  </defs>
  <rect width="64" height="64" rx="16" fill="url(#bg)" />
  <path
    d="M41.7 19.1c-1.9-2.1-4.8-3.3-8.6-3.3c-7.2 0-11.9 3.8-11.9 9.4c0 4.9 3.2 7.5 10.4 9.3c4.9 1.2 6.1 2.1 6.1 4.1c0 2.1-2 3.6-5.1 3.6c-3.3 0-6.1-1.3-8.6-3.7l-4.7 5.6c3.2 3.2 7.8 5 13.1 5c7.5 0 12.5-3.7 12.5-9.8c0-5.2-2.8-7.6-9.8-9.2c-5.1-1.2-6.7-1.9-6.7-4.2c0-1.9 1.7-3.3 4.6-3.3c2.8 0 5.1 1 7.4 3l5.3-5.5Z"
    fill="#fff7ed"
  />
</svg>
